PathFileType	4	(X/Y/Z)	C:/Users/beibeiliu/ov580/test_trc/User3\sequence.41_training_dense_right.trc
DataRate	CameraRate	NumFrames	NumMarkers	Units	OrigDataRate	OrigDataStartFrame	OrigNumFrames
120	120	10	19	mm	120	264	301
Frame#	Time	ThumbCMC			ThumbMCP			ThumbIP			ThumbTip			IndexMCP			IndexPIP			IndexTip			MiddleMCP			MiddlePIP			MiddleTip			RingMCP			RingPIP			RingTip			PinkyMCP			PinkyPIP			PinkyTip			BackHand1			BackHand2			BackHand3	
		X0	Y0	Z0	X1	Y1	Z1	X2	Y2	Z2	X3	Y3	Z3	X4	Y4	Z4	X5	Y5	Z5	X6	Y6	Z6	X7	Y7	Z7	X8	Y8	Z8	X9	Y9	Z9	X10	Y10	Z10	X11	Y11	Z11	X12	Y12	Z12	X13	Y13	Z13	X14	Y14	Z14	X15	Y15	Z15	X16	Y16	Z16	X17	Y17	Z17	X18	Y18	Z18	
263	2.19167	77.2802	32.7326	25.0608	58.4111	23.237	7.37137	40.6426	15.9422	-19.8064	23.3875	7.81928	-33.0358	90.3238	32.1141	-50.8072	79.1216	26.703	-75.0886	77.1313	13.7475	-98.5978	114.023	26.9921	-60.2955	110.983	19.6963	-86.5568	108.049	3.52794	-114.239	132.808	17.9482	-49.9436	135.29	12.0966	-73.6119	130.513	1.96825	-100.975	151.625	5.79464	-29.9331	158.59	-2.13393	-50.41	160.584	-10.2917	-76.8635	134.027	35.3271	-1.18039	141.422	39.0975	26.1405	109.171	47.2273	11.5149	
264	2.2	73.7775	33.1072	24.6112	53.4922	24.1528	6.5464	37.2082	15.74	-16.9766	26.8287	6.82012	-33.3587	86.4359	32.8125	-50.263	79.9858	25.9485	-75.231	71.6506	12.742	-99.4815	113.57	27.4232	-59.6181	112.277	20.0091	-84.7152	107.291	5.80783	-111.39	129.155	20.213	-49.2319	133.926	12.1931	-76.7803	129.749	2.88094	-100.296	148.597	6.37964	-32.0327	155.425	-0.00763845	-49.7828	161.796	-9.55451	-73.3345	136.642	32.3898	0.585127	140.179	37.6434	27.1069	105.496	48.5941	16.0877	
265	2.20833	77.874	31.4084	24.7102	57.3786	21.9729	2.57123	36.7133	14.6051	-15.9881	27.8545	4.82953	-36.2094	89.5098	31.5232	-51.4718	76.0512	23.6129	-78.7751	71.0199	10.0694	-100.52	116.199	26.8903	-55.9687	109.034	19.7979	-85.0076	102.98	5.00986	-113.152	131.213	19.2785	-51.1754	130.936	13.9554	-73.8487	128.59	2.23791	-99.8393	149.974	5.60651	-28.7532	156.095	0.333747	-53.5538	157.49	-10.3716	-75.3709	133.133	33.7199	0.965127	139.469	37.7566	30.3207	107.521	49.5307	12.2236	
266	2.21667	75.2331	31.9883	29.1932	58.6285	20.6154	4.33247	38.9836	13.4909	-20.5962	30.2277	3.44154	-35.216	88.0362	30.3149	-54.7425	78.9305	23.4448	-74.9063	71.2383	6.68753	-99.2323	113.142	27.5652	-59.1261	111.792	16.7765	-87.5213	104.909	2.80926	-113.103	129.623	19.4016	-47.2487	134.265	11.5812	-74.2442	129.646	0.297682	-100.848	149.636	6.76453	-30.5863	156.379	-0.213004	-48.9203	160.073	-10.631	-71.827	135.943	35.2134	-0.624375	140.709	39.8463	31.6252	105.502	50.6294	13.938	
267	2.225	75.3193	31.0318	29.0739	58.4795	20.1615	6.83275	40.5369	12.1345	-19.3845	30.6136	2.09113	-34.7685	88.3844	30.1183	-53.9168	76.4948	21.5311	-78.5785	68.7436	5.8069	-98.7754	116.158	26.6695	-58.3718	111.304	17.9107	-85.7459	105.864	3.71833	-110.758	129.644	20.2073	-48.5688	132.698	12.0197	-74.8924	133.832	1.12062	-96.5506	148.111	6.28679	-27.8864	157.968	-0.213579	-49.7875	159.195	-8.99938	-72.4207	135.113	36.037	3.365	141.59	37.0407	29.6657	105.755	49.0307	13	
268	2.23333	74.7814	30.975	27.7215	54.432	21.4649	5.66301	41.8482	11.0566	-19.6598	27.8373	2.28701	-36.7369	86.2088	31.7295	-53.5776	77.355	23.0797	-74.8772	72.6174	7.50391	-95.5984	113.683	27.4283	-54.7978	109.666	17.9256	-86.5453	102.485	4.26119	-112.588	132.167	19.1456	-50.5695	132.718	13.5018	-72.2278	131.502	0.679637	-100.583	146.339	7.29957	-29.6079	155.412	0.361443	-51.0608	160.061	-9.37424	-74.3294	138.23	33.708	1.49735	140.893	36.4182	27.9523	106.698	47.2987	12.4246	
269	2.24167	74.0755	32.8926	25.8391	57.2655	22.23	6.29354	36.2208	15.5527	-17.3783	29.3578	4.35664	-37.7139	84.4603	33.1122	-48.7993	75.6449	23.3713	-78.9959	71.2041	10.0791	-95.9103	114.427	27.0525	-56.135	111.778	19.2754	-82.7842	101.888	2.46328	-115.344	132.285	17.7785	-48.9342	130.808	12.8979	-73.6055	128.967	-0.294432	-101.392	150.418	5.26388	-28.7001	154.302	0.384085	-51.4524	159.285	-10.1037	-70.4542	137.064	33.7941	0.996058	138.765	37.4835	27.4425	109.068	48.1459	15.727	
270	2.25	71.7809	34.1521	23.855	52.7887	24.5667	5.39054	38.3808	16.6057	-19.0975	24.0332	7.35072	-35.213	84.8356	32.1924	-52.8946	77.9706	23.6096	-78.2481	67.8699	9.85651	-97.6962	114.925	26.2702	-59.9819	110.099	17.2317	-87.7016	102.711	1.65953	-115.138	128.213	19.4575	-45.9773	131.403	13.7125	-70.9144	133.12	0.292661	-97.1563	148.43	6.6386	-31.1386	154.88	-0.591899	-51.7453	159.211	-11.5843	-75.3318	134.364	31.9932	-0.236228	136.688	40.017	29.3966	103.555	48.4717	11.7471	
271	2.25833	77.096	32.191	25.807	53.2521	24.4798	6.78551	36.5857	17.1226	-17.8791	26.0434	8.20266	-37.0128	86.2299	33.2957	-51.4229	79.8969	22.718	-77.8028	69.3334	9.35184	-98.9178	112.061	28.0123	-55.216	109.884	18.0072	-86.8845	102.675	3.46959	-110.583	128.531	19.3723	-47.4628	132.993	11.8934	-75.8306	130.423	1.99653	-95.8958	147.92	6.81876	-31.5725	152.093	0.778425	-53.8115	161.755	-9.71856	-72.6948	134.92	32.4811	0.829415	137.824	36.8125	29.3431	106.975	49.5685	13.1092	
272	2.26667	75.0829	32.9401	27.7036	52.6327	24.2902	7.4748	36.5963	16.7624	-17.8942	28.5263	7.19861	-32.7435	85.2012	33.3696	-48.2384	76.1965	23.8583	-74.6846	71.6862	10.4485	-95.3469	113.84	26.7133	-54.0454	106.512	19.2763	-86.1529	100.513	2.81075	-114.125	128.011	18.6441	-49.1482	129.643	13.5142	-71.6517	130.971	-0.116628	-98.3455	145.628	6.18485	-29.4203	156.288	-0.545618	-48.1787	160.132	-10.8184	-68.9991	136.674	32.0694	3.94677	137.612	38.8631	30.2725	106.295	46.8796	15.7959	
